<svg width="38" height="38" viewBox="0 0 38 38" fill="none" xmlns="http://www.w3.org/2000/svg">
<path d="M26.3621 37.75H11.6371C8.61779 37.7467 5.7233 36.5458 3.58851 34.411C1.45373 32.2762 0.252869 29.3817 0.249512 26.3624V13.8624C0.318708 11.1314 1.36644 8.51615 3.2018 6.49243C5.03715 4.469 7.53829 3.17186 10.2495 2.83729V1.49965C10.2495 1.05294 10.4878 0.640289 10.8745 0.417075C11.2612 0.193861 11.7378 0.193861 12.1245 0.417075C12.5112 0.640289 12.7495 1.05295 12.7495 1.49965V2.74965H25.2495V1.49965C25.2495 1.05294 25.4878 0.640289 25.8745 0.417075C26.2612 0.193861 26.7378 0.193861 27.1245 0.417075C27.5112 0.640289 27.7495 1.05295 27.7495 1.49965V2.83729C30.4713 3.1735 32.9805 4.47958 34.8173 6.51615C36.6541 8.55243 37.6951 11.1827 37.7495 13.9247V26.4247C37.7297 29.4331 36.5216 32.3117 34.3884 34.4333C32.2554 36.5544 29.3703 37.7467 26.362 37.75H26.3621ZM2.74994 15.25V26.3622C2.75329 28.7182 3.6908 30.9768 5.3568 32.6429C7.02279 34.3089 9.28144 35.2464 11.6375 35.2497H26.3625C28.7185 35.2464 30.9771 34.3089 32.6432 32.6429C34.3092 30.9769 35.2467 28.7182 35.2501 26.3622V15.25H2.74994ZM2.86238 12.75H35.1374C34.8399 10.8979 33.9661 9.18665 32.6396 7.86022C31.3132 6.53379 29.6019 5.65986 27.7498 5.36243V6.5C27.7498 6.94671 27.5115 7.35936 27.1248 7.58258C26.7381 7.80579 26.2615 7.80579 25.8748 7.58258C25.4881 7.35936 25.2498 6.9467 25.2498 6.5V5.25H12.7498V6.5C12.7498 6.94671 12.5115 7.35936 12.1248 7.58258C11.7381 7.80579 11.2615 7.80579 10.8748 7.58258C10.4881 7.35936 10.2498 6.9467 10.2498 6.5V5.36243C8.39767 5.65987 6.68645 6.53372 5.36002 7.86022C4.0336 9.18665 3.15967 10.8979 2.86224 12.75H2.86238ZM31.5002 30.25H29.0002C28.6688 30.25 28.3507 30.1183 28.1163 29.8839C27.8819 29.6496 27.7502 29.3315 27.7502 29V26.5C27.7502 26.1685 27.8819 25.8505 28.1163 25.6161C28.3507 25.3817 28.6688 25.25 29.0002 25.25H31.5002C31.8317 25.25 32.1498 25.3817 32.3842 25.6161C32.6185 25.8505 32.7502 26.1685 32.7502 26.5V29C32.7502 29.3315 32.6185 29.6496 32.3842 29.8839C32.1498 30.1183 31.8317 30.25 31.5002 30.25ZM24.0002 30.25H21.5002C21.1688 30.25 20.8507 30.1183 20.6163 29.8839C20.3819 29.6496 20.2502 29.3315 20.2502 29V26.5C20.2502 26.1685 20.3819 25.8505 20.6163 25.6161C20.8507 25.3817 21.1688 25.25 21.5002 25.25H24.0002C24.3317 25.25 24.6498 25.3817 24.8842 25.6161C25.1185 25.8505 25.2502 26.1685 25.2502 26.5V29C25.2502 29.3315 25.1185 29.6496 24.8842 29.8839C24.6498 30.1183 24.3317 30.25 24.0002 30.25ZM16.5002 30.25H14.0002C13.6688 30.25 13.3507 30.1183 13.1163 29.8839C12.8819 29.6496 12.7502 29.3315 12.7502 29V26.5C12.7502 26.1685 12.8819 25.8505 13.1163 25.6161C13.3507 25.3817 13.6688 25.25 14.0002 25.25H16.5002C16.8317 25.25 17.1498 25.3817 17.3842 25.6161C17.6185 25.8505 17.7502 26.1685 17.7502 26.5V29C17.7502 29.3315 17.6185 29.6496 17.3842 29.8839C17.1498 30.1183 16.8317 30.25 16.5002 30.25ZM9.00024 30.25H6.50024C6.16877 30.25 5.85068 30.1183 5.61631 29.8839C5.38194 29.6496 5.25024 29.3315 5.25024 29V26.5C5.25024 26.1685 5.38194 25.8505 5.61631 25.6161C5.85068 25.3817 6.16877 25.25 6.50024 25.25H9.00024C9.33171 25.25 9.64979 25.3817 9.88416 25.6161C10.1185 25.8505 10.2502 26.1685 10.2502 26.5V29C10.2502 29.3315 10.1185 29.6496 9.88416 29.8839C9.64979 30.1183 9.33171 30.25 9.00024 30.25ZM31.5002 22.75H29.0002C28.6688 22.75 28.3507 22.6183 28.1163 22.3839C27.8819 22.1496 27.7502 21.8315 27.7502 21.5V19C27.7502 18.6685 27.8819 18.3504 28.1163 18.1161C28.3507 17.8817 28.6688 17.75 29.0002 17.75H31.5002C31.8317 17.75 32.1498 17.8817 32.3842 18.1161C32.6185 18.3504 32.7502 18.6685 32.7502 19V21.5C32.7502 21.8315 32.6185 22.1496 32.3842 22.3839C32.1498 22.6183 31.8317 22.75 31.5002 22.75ZM24.0002 22.75H21.5002C21.1688 22.75 20.8507 22.6183 20.6163 22.3839C20.3819 22.1496 20.2502 21.8315 20.2502 21.5V19C20.2502 18.6685 20.3819 18.3504 20.6163 18.1161C20.8507 17.8817 21.1688 17.75 21.5002 17.75H24.0002C24.3317 17.75 24.6498 17.8817 24.8842 18.1161C25.1185 18.3504 25.2502 18.6685 25.2502 19V21.5C25.2502 21.8315 25.1185 22.1496 24.8842 22.3839C24.6498 22.6183 24.3317 22.75 24.0002 22.75ZM16.5002 22.75H14.0002C13.6688 22.75 13.3507 22.6183 13.1163 22.3839C12.8819 22.1496 12.7502 21.8315 12.7502 21.5V19C12.7502 18.6685 12.8819 18.3504 13.1163 18.1161C13.3507 17.8817 13.6688 17.75 14.0002 17.75H16.5002C16.8317 17.75 17.1498 17.8817 17.3842 18.1161C17.6185 18.3504 17.7502 18.6685 17.7502 19V21.5C17.7502 21.8315 17.6185 22.1496 17.3842 22.3839C17.1498 22.6183 16.8317 22.75 16.5002 22.75ZM9.00024 22.75H6.50024C6.16877 22.75 5.85068 22.6183 5.61631 22.3839C5.38194 22.1496 5.25024 21.8315 5.25024 21.5V19C5.25024 18.6685 5.38194 18.3504 5.61631 18.1161C5.85068 17.8817 6.16877 17.75 6.50024 17.75H9.00024C9.33171 17.75 9.64979 17.8817 9.88416 18.1161C10.1185 18.3504 10.2502 18.6685 10.2502 19V21.5C10.2502 21.8315 10.1185 22.1496 9.88416 22.3839C9.64979 22.6183 9.33171 22.75 9.00024 22.75Z" fill="#F5F5F5"/>
</svg>
