<svg width="36" height="36" viewBox="0 0 36 36" fill="none" xmlns="http://www.w3.org/2000/svg">
<path d="M34.8 36H27.6C27.2818 36 26.9764 35.8736 26.7514 35.6486C26.5264 35.4236 26.4 35.1182 26.4 34.8V1.2C26.4 0.881787 26.5264 0.576425 26.7514 0.351429C26.9764 0.126432 27.2818 0 27.6 0H34.8C35.1182 0 35.4236 0.126432 35.6486 0.351429C35.8736 0.576425 36 0.881787 36 1.2V34.8C36 35.1182 35.8736 35.4236 35.6486 35.6486C35.4236 35.8736 35.1182 36 34.8 36ZM28.8 33.6H33.6V2.4H28.8V33.6ZM21.6 36H14.4C14.0818 36 13.7764 35.8736 13.5514 35.6486C13.3264 35.4236 13.2 35.1182 13.2 34.8V1.2C13.2 0.881787 13.3264 0.576425 13.5514 0.351429C13.7764 0.126432 14.0818 0 14.4 0H21.6C21.9182 0 22.2236 0.126432 22.4486 0.351429C22.6736 0.576425 22.8 0.881787 22.8 1.2V34.8C22.8 35.1182 22.6736 35.4236 22.4486 35.6486C22.2236 35.8736 21.9182 36 21.6 36ZM15.6 33.6H20.4V2.4H15.6V33.6ZM8.4 36H1.2C0.881787 36 0.576425 35.8736 0.351429 35.6486C0.126432 35.4236 0 35.1182 0 34.8V1.2C0 0.881787 0.126432 0.576425 0.351429 0.351429C0.576425 0.126432 0.881787 0 1.2 0H8.4C8.71821 0 9.02357 0.126432 9.24857 0.351429C9.47357 0.576425 9.6 0.881787 9.6 1.2V34.8C9.6 35.1182 9.47357 35.4236 9.24857 35.6486C9.02357 35.8736 8.71821 36 8.4 36ZM2.4 33.6H7.2V2.4H2.4V33.6ZM31.2 26.4C30.8818 26.4 30.5764 26.2736 30.3514 26.0486C30.1264 25.8236 30 25.5182 30 25.2V6C30 5.57116 30.2287 5.17502 30.6 4.96073C30.9713 4.74645 31.4288 4.74645 31.8 4.96073C32.1712 5.17502 32.4 5.57117 32.4 6V25.2C32.4 25.5182 32.2736 25.8236 32.0486 26.0486C31.8236 26.2736 31.5182 26.4 31.2 26.4ZM18 26.4C17.6818 26.4 17.3764 26.2736 17.1514 26.0486C16.9264 25.8236 16.8 25.5182 16.8 25.2V6C16.8 5.57116 17.0287 5.17502 17.4 4.96073C17.7713 4.74645 18.2288 4.74645 18.6 4.96073C18.9712 5.17502 19.2 5.57117 19.2 6V25.2C19.2 25.5182 19.0736 25.8236 18.8486 26.0486C18.6236 26.2736 18.3182 26.4 18 26.4ZM4.8 26.4C4.48179 26.4 4.17642 26.2736 3.95143 26.0486C3.72643 25.8236 3.6 25.5182 3.6 25.2V6C3.6 5.57116 3.82875 5.17502 4.2 4.96073C4.57125 4.74645 5.02875 4.74645 5.4 4.96073C5.77125 5.17502 6 5.57117 6 6V25.2C6 25.5182 5.87357 25.8236 5.64857 26.0486C5.42357 26.2736 5.11821 26.4 4.8 26.4Z" fill="#F5F5F5"/>
</svg>
