<svg width="36" height="36" viewBox="0 0 36 36" fill="none" xmlns="http://www.w3.org/2000/svg">
<path d="M34.7934 36H1.19977C0.88162 36 0.576316 35.8736 0.351362 35.6486C0.126408 35.4237 0 35.1184 0 34.8002V6.00581C0 5.68766 0.126408 5.38236 0.351362 5.1574C0.576316 4.93245 0.88162 4.80604 1.19977 4.80604H14.3973C14.826 4.80604 15.2221 5.03475 15.4363 5.40593C15.6506 5.77711 15.6506 6.23452 15.4363 6.60569C15.2221 6.97687 14.826 7.20558 14.3973 7.20558H2.39954V33.6005H33.5936V10.8049C33.5936 10.3761 33.8223 9.98006 34.1935 9.76581C34.5647 9.55157 35.0221 9.55157 35.3933 9.76581C35.7644 9.98006 35.9932 10.3761 35.9932 10.8049V34.8002C35.9932 35.1184 35.8667 35.4237 35.6418 35.6486C35.4168 35.8736 35.1115 36 34.7934 36ZM9.34588 27.8539C9.02693 27.8558 8.72055 27.7305 8.49397 27.506C8.34186 27.3507 8.23474 27.1571 8.18412 26.9458C8.13324 26.7345 8.14101 26.5136 8.20608 26.3063L9.89783 21.2314V21.2311C9.95086 21.0616 10.0411 20.9057 10.1619 20.7753L22.9151 7.99746L22.0632 7.20554L18.668 10.5408C18.443 10.7644 18.1391 10.8897 17.822 10.8897C17.5052 10.8897 17.2009 10.7644 16.9763 10.5408C16.7492 10.3155 16.6214 10.0089 16.6214 9.68913C16.6214 9.3691 16.7492 9.06247 16.9763 8.83723L21.2234 4.60219V4.60192C21.447 4.38044 21.7485 4.25538 22.0632 4.25404C22.3822 4.25216 22.6888 4.3775 22.9151 4.60192L28.854 10.5408C29.0773 10.7657 29.2029 11.0697 29.2029 11.3868C29.2029 11.7036 29.0773 12.0078 28.854 12.2325L15.2842 25.8022C15.1538 25.923 14.9979 26.013 14.8284 26.0663L9.71733 27.7939C9.59816 27.837 9.47202 27.8573 9.34535 27.8539L9.34588 27.8539ZM11.5655 23.7868L11.2414 24.7587L12.2133 24.4346L11.5655 23.7868ZM12.7652 21.5672L14.397 23.2587L26.2747 11.3933L24.6071 9.68978L12.7652 21.5672ZM31.398 9.19726C31.0772 9.19592 30.7706 9.0663 30.5461 8.83733L27.1626 5.45385C26.9337 5.22943 26.804 4.92279 26.8027 4.60195C26.804 4.28138 26.9337 3.97475 27.1626 3.75032L30.5461 0.355111V0.354843C30.7714 0.127744 31.078 0 31.398 0C31.7178 0 32.0244 0.127744 32.2497 0.354843L35.6452 3.75032C35.8723 3.97555 36 4.28218 36 4.60195C36 4.92198 35.8723 5.22861 35.6452 5.45386L32.2497 8.83734C32.0252 9.06631 31.7186 9.19593 31.398 9.19727V9.19726ZM29.7063 4.60201L31.398 6.29376L33.1018 4.60201L31.398 2.89848L29.7063 4.60201Z" fill="#F5F5F5"/>
</svg>
