<svg width="36" height="36" viewBox="0 0 36 36" fill="none" xmlns="http://www.w3.org/2000/svg">
<path d="M31.8001 36H28.2001C26.9475 35.9997 25.7607 35.4404 24.963 34.4748C24.1653 33.5092 23.8402 32.238 24.0764 31.0079C24.3126 29.7779 25.0854 28.7175 26.1841 28.1159C25.5448 27.2783 25.199 26.2537 25.2 25.2C25.2 23.4852 26.115 21.9005 27.6 21.0431C29.085 20.1857 30.915 20.1857 32.4 21.0431C33.885 21.9005 34.8 23.4852 34.8 25.2C34.8011 26.2537 34.4553 27.2783 33.8159 28.1159C34.9146 28.7175 35.6874 29.7779 35.9236 31.0079C36.1599 32.238 35.8347 33.5092 35.037 34.4748C34.2393 35.4405 33.0525 35.9997 31.7999 36H31.8001ZM28.2001 30C27.5569 30 26.9628 30.3431 26.6412 30.9C26.3197 31.4569 26.3197 32.1431 26.6412 32.7C26.9629 33.2569 27.5569 33.6 28.2001 33.6H31.8001C32.4432 33.6 33.0373 33.2569 33.359 32.7C33.6804 32.1431 33.6804 31.4569 33.359 30.9C33.0373 30.3431 32.4432 30 31.8001 30H28.2001ZM30.0001 22.8C29.3636 22.8 28.7532 23.0529 28.3029 23.5029C27.8529 23.9531 27.6001 24.5636 27.6001 25.2C27.6001 25.8364 27.8529 26.4469 28.3029 26.8971C28.7532 27.3471 29.3637 27.6 30.0001 27.6C30.6365 27.6 31.247 27.3471 31.6972 26.8971C32.1472 26.4469 32.4001 25.8364 32.4001 25.2C32.4001 24.5636 32.1472 23.9531 31.6972 23.5029C31.2469 23.0529 30.6365 22.8 30.0001 22.8ZM19.8001 36H16.2001C14.9475 35.9997 13.7607 35.4404 12.963 34.4748C12.1653 33.5092 11.8402 32.238 12.0764 31.0079C12.3126 29.7779 13.0854 28.7175 14.1841 28.1159C13.5448 27.2783 13.199 26.2537 13.2 25.2C13.2 23.4852 14.115 21.9005 15.6 21.0431C17.085 20.1857 18.915 20.1857 20.4 21.0431C21.885 21.9005 22.8 23.4852 22.8 25.2C22.8011 26.2537 22.4553 27.2783 21.8159 28.1159C22.9146 28.7175 23.6874 29.7779 23.9236 31.0079C24.1599 32.238 23.8347 33.5092 23.037 34.4748C22.2393 35.4405 21.0525 35.9997 19.7999 36H19.8001ZM16.2001 30C15.5569 30 14.9628 30.3431 14.6412 30.9C14.3197 31.4569 14.3197 32.1431 14.6412 32.7C14.9629 33.2569 15.5569 33.6 16.2001 33.6H19.8001C20.4432 33.6 21.0373 33.2569 21.359 32.7C21.6804 32.1431 21.6804 31.4569 21.359 30.9C21.0373 30.3431 20.4432 30 19.8001 30H16.2001ZM18.0001 22.8C17.3636 22.8 16.7532 23.0529 16.3029 23.5029C15.8529 23.9531 15.6001 24.5636 15.6001 25.2C15.6001 25.8364 15.8529 26.4469 16.3029 26.8971C16.7532 27.3471 17.3637 27.6 18.0001 27.6C18.6365 27.6 19.247 27.3471 19.6972 26.8971C20.1472 26.4469 20.4001 25.8364 20.4001 25.2C20.4001 24.5636 20.1472 23.9531 19.6972 23.5029C19.2469 23.0529 18.6365 22.8 18.0001 22.8ZM7.80007 36H4.20007C2.94754 35.9997 1.76071 35.4404 0.963017 34.4748C0.165326 33.5092 -0.15984 32.238 0.0763885 31.0079C0.312638 29.7779 1.08542 28.7175 2.18414 28.1159C1.54476 27.2783 1.19897 26.2537 1.2 25.2C1.2 23.4852 2.11502 21.9005 3.6 21.0431C5.08498 20.1857 6.91502 20.1857 8.4 21.0431C9.88498 21.9005 10.8 23.4852 10.8 25.2C10.8011 26.2537 10.4553 27.2783 9.81586 28.1159C10.9146 28.7175 11.6874 29.7779 11.9236 31.0079C12.1599 32.238 11.8347 33.5092 11.037 34.4748C10.2393 35.4405 9.05246 35.9997 7.79993 36H7.80007ZM4.20007 30C3.55694 30 2.96283 30.3431 2.64117 30.9C2.31974 31.4569 2.31974 32.1431 2.64117 32.7C2.96286 33.2569 3.55694 33.6 4.20007 33.6H7.80007C8.44319 33.6 9.0373 33.2569 9.35897 32.7C9.6804 32.1431 9.6804 31.4569 9.35897 30.9C9.03727 30.3431 8.4432 30 7.80007 30H4.20007ZM6.00007 22.8C5.36364 22.8 4.75317 23.0529 4.30293 23.5029C3.85293 23.9531 3.60007 24.5636 3.60007 25.2C3.60007 25.8364 3.85293 26.4469 4.30293 26.8971C4.75319 27.3471 5.36366 27.6 6.00007 27.6C6.63648 27.6 7.24697 27.3471 7.69721 26.8971C8.14721 26.4469 8.40007 25.8364 8.40007 25.2C8.40007 24.5636 8.14721 23.9531 7.69721 23.5029C7.24694 23.0529 6.63648 22.8 6.00007 22.8ZM31.8001 19.2H28.2001C27.4059 19.1995 26.6277 18.9737 25.9568 18.5488C25.2855 18.124 24.7485 17.5176 24.408 16.8H1.2C0.881787 16.8 0.576425 16.6736 0.351429 16.4486C0.126432 16.2236 0 15.9182 0 15.6V1.2C0 0.881787 0.126432 0.576425 0.351429 0.351428C0.576425 0.126432 0.881787 0 1.2 0H34.8C35.1182 0 35.4236 0.126432 35.6486 0.351428C35.8736 0.576425 36 0.881787 36 1.2V15.6C35.9995 15.8298 35.9328 16.0548 35.8079 16.2479C35.5487 17.1069 35.018 17.8591 34.2953 18.3913C33.5729 18.9233 32.6973 19.2072 31.7999 19.2L31.8001 19.2ZM26.4001 15.3841C26.489 15.7924 26.7175 16.1569 27.0459 16.4151C27.3743 16.6736 27.7822 16.8097 28.2001 16.8H31.8001C32.2774 16.7995 32.7349 16.6096 33.0721 16.2721C33.3239 16.0291 33.4956 15.7152 33.5642 15.3721C33.576 15.2523 33.576 15.1318 33.5642 15.0121C33.5674 14.5388 33.3839 14.0831 33.0539 13.7441C32.7237 13.405 32.2734 13.2094 31.8001 13.2H28.2001C27.7228 13.2006 27.2653 13.3905 26.928 13.728C26.5881 14.0639 26.3979 14.5222 26.4001 15.0001C26.3878 15.1278 26.3878 15.2564 26.4001 15.3842L26.4001 15.3841ZM2.40007 14.4H24.0001C24.126 13.4901 24.5476 12.6466 25.2001 12C25.4845 11.7161 25.8078 11.4737 26.1601 11.28C25.1794 9.94286 24.9585 8.19456 25.5753 6.65548C26.1922 5.11639 27.5599 4.00478 29.1925 3.71521C30.8251 3.42538 32.4914 3.99913 33.6 5.23207V2.40001H2.40005L2.40007 14.4ZM30.0001 10.8C30.6365 10.8 31.247 10.5471 31.6972 10.0971C32.1472 9.64688 32.4001 9.03642 32.4001 8.4C32.4001 7.76359 32.1472 7.1531 31.6972 6.70286C31.2469 6.25286 30.6365 6.00001 30.0001 6.00001C29.3637 6.00001 28.7532 6.25286 28.3029 6.70286C27.8529 7.15313 27.6001 7.76359 27.6001 8.4C27.6001 9.03642 27.8529 9.64691 28.3029 10.0971C28.7532 10.5471 29.3637 10.8 30.0001 10.8ZM20.4001 12H6.00007C5.57123 12 5.17509 11.7713 4.9608 11.4C4.74651 11.0288 4.74651 10.5712 4.9608 10.2C5.17509 9.82876 5.57124 9.6 6.00007 9.6H20.4001C20.8289 9.6 21.2251 9.82875 21.4393 10.2C21.6536 10.5713 21.6536 11.0288 21.4393 11.4C21.2251 11.7712 20.8289 12 20.4001 12ZM15.6001 7.20001H6.00007C5.57123 7.20001 5.17509 6.97126 4.9608 6.60001C4.74651 6.22875 4.74651 5.77125 4.9608 5.40001C5.17509 5.02876 5.57124 4.80001 6.00007 4.80001H15.6001C16.0289 4.80001 16.4251 5.02875 16.6393 5.40001C16.8536 5.77126 16.8536 6.22876 16.6393 6.60001C16.4251 6.97125 16.0289 7.20001 15.6001 7.20001Z" fill="#F5F5F5"/>
</svg>
